<svg width="549" height="548" viewBox="0 0 549 548" fill="none" xmlns="http://www.w3.org/2000/svg">
<path d="M480.905 94.3841L322.331 252.985L277.157 207.81L255.449 186.101L231.485 162.136L231.376 162.027L229.858 160.509C218.755 149.405 200.776 149.405 189.673 160.509L188.024 162.136L143.48 206.725L12.0145 338.173C10.6049 339.583 9.52053 341.231 8.78318 342.945C8.65306 342.554 8.54462 342.164 8.45788 341.752V341.708C3.29642 321.647 0.412077 300.676 0.0217152 279.075C-2.66745 129.062 117.759 3.40495 267.788 0.0650734C352.909 -1.82174 429.442 35.1338 480.905 94.3841Z" fill="black"/>
<path d="M517.707 148.624L367.851 298.529L346.099 320.238L333.846 332.491C327.991 338.368 318.492 338.368 312.637 332.491L186.897 206.725L209.755 183.867L233.718 207.831L255.47 229.541L309.384 283.456C316.54 290.613 328.143 290.613 335.299 283.456L344.039 274.716L499.859 118.891C506.43 128.368 512.372 138.301 517.707 148.624Z" fill="black"/>
<path d="M189.131 252.399L34.4387 407.096C28.6483 396.665 23.4868 385.799 19.0627 374.565L33.3977 360.23C33.0073 360.62 32.617 360.924 32.2049 361.249L165.123 228.348L165.188 228.413L189.131 252.399Z" fill="black"/>
<path d="M209.755 183.867L186.897 206.725L186.81 206.66L209.69 183.758L209.755 183.867Z" fill="black"/>
<path d="M165.188 228.435L33.3976 360.23C33.0072 360.62 32.6169 360.924 32.2048 361.249L165.123 228.348L165.188 228.435Z" fill="black"/>
<path d="M209.755 183.867L186.897 206.725L186.81 206.66L209.69 183.758L209.755 183.867Z" fill="black"/>
<path d="M547.96 279.335C545.184 424.338 427.685 543.359 282.709 547.848C187.417 550.798 102.622 505.059 51.2893 433.685L210.882 274.13L301.685 364.936C313.634 376.885 332.957 376.885 344.885 364.936L344.993 364.827L367.851 341.925L389.56 320.216L530.979 178.792C542.582 210.043 548.632 243.941 547.96 279.335Z" fill="black"/>
<path d="M165.188 228.435L33.3976 360.23C33.0072 360.62 32.6169 360.924 32.2048 361.249L165.123 228.348L165.188 228.435Z" fill="black"/>
<path d="M209.755 183.867L186.897 206.725L186.81 206.66L209.69 183.758L209.755 183.867Z" fill="black"/>
<path d="M8.60957 341.6L12.0144 338.195C10.6048 339.605 9.52042 341.253 8.78307 342.966C8.65294 342.576 8.54451 342.186 8.45776 341.773V341.73L8.60957 341.6Z" fill="black"/>
<path d="M165.188 228.435L33.3976 360.23C33.0072 360.62 32.6169 360.924 32.2048 361.249L165.123 228.348L165.188 228.435Z" fill="black"/>
<path d="M209.755 183.867L186.897 206.725L186.81 206.66L209.69 183.758L209.755 183.867Z" fill="black"/>
</svg>
